<?xml version="1.0" encoding="utf-8"?>
<!-- Generator: Adobe Illustrator 24.2.3, SVG Export Plug-In . SVG Version: 6.00 Build 0)  -->
<svg version="1.1" id="Capa_1" xmlns="http://www.w3.org/2000/svg" xmlns:xlink="http://www.w3.org/1999/xlink" x="0px" y="0px"
	 viewBox="0 0 85.04 85.04" style="enable-background:new 0 0 85.04 85.04;" xml:space="preserve">
<g>
	<g>
		<path d="M52.06,21.83c0.38,0,0.77-0.15,1.06-0.44L65.36,9.15c0.59-0.59,0.59-1.54,0-2.12c-0.59-0.59-1.54-0.59-2.12,0L51,19.27
			c-0.59,0.59-0.59,1.54,0,2.12C51.29,21.68,51.68,21.83,52.06,21.83z M77.99,4.22c0.43-0.43,0.56-1.07,0.33-1.63
			s-0.78-0.93-1.39-0.93H8.11c-0.61,0-1.15,0.37-1.39,0.93s-0.1,1.21,0.33,1.63l31.04,31.04v38.89l-12.55,7.53
			c-0.58,0.35-0.85,1.04-0.67,1.69c0.18,0.65,0.77,1.1,1.45,1.1h31.62c0.67,0,1.25-0.44,1.44-1.08s-0.07-1.33-0.63-1.68L46.55,73.9
			V35.66L77.99,4.22z M44.24,75.98l8.57,5.49H31.73l8.64-5.18c0.45-0.27,0.73-0.76,0.73-1.29V34.64c0-0.4-0.16-0.78-0.44-1.06
			L11.73,4.66h61.58L43.99,33.98c-0.28,0.28-0.44,0.66-0.44,1.06v39.68C43.55,75.23,43.81,75.7,44.24,75.98z"/>
	</g>
</g>
</svg>
