<?xml version="1.0" encoding="utf-8"?>
<!-- Generator: Adobe Illustrator 24.2.3, SVG Export Plug-In . SVG Version: 6.00 Build 0)  -->
<svg version="1.1" id="Capa_1" xmlns="http://www.w3.org/2000/svg" xmlns:xlink="http://www.w3.org/1999/xlink" x="0px" y="0px"
	 viewBox="0 0 85.04 85.04" style="enable-background:new 0 0 85.04 85.04;" xml:space="preserve">
<g>
	<path d="M65.71,37.12l18.28-19.02c0.56-0.58,0.56-1.52,0-2.1c-0.56-0.58-1.46-0.58-2.01,0L63.69,35.03
		c-5.83,6.07-10.64,3.76-10.83,3.67c-0.58-0.31-1.27-0.17-1.7,0.33l-6.58,7.64c0,0,0,0,0,0c0,0,0,0,0,0L15.96,79.91
		c-0.01,0.01-1.48,1.45-3.31,1.39c-1.23-0.03-2.44-0.7-3.61-1.99c-1.04-1.16-1.51-2.3-1.43-3.48c0.15-2.22,2.19-3.94,2.26-4.01
		l26.4-24.16c0.59-0.54,0.65-1.48,0.13-2.09c-0.52-0.61-1.42-0.67-2.01-0.13L8.05,69.54c-0.12,0.1-3.02,2.52-3.28,6.05
		c-0.15,2.04,0.59,3.97,2.19,5.75c1.72,1.9,3.62,2.89,5.66,2.93c0.04,0,0.08,0,0.12,0c3.02,0,5.13-2.15,5.28-2.31l21.97-25.51
		l21.27,24.42c0.11,0.13,2.71,3.18,6.27,3.34c0.1,0,0.2,0.01,0.3,0.01c1.86,0,3.6-0.79,5.17-2.36c1.63-1.63,2.41-3.45,2.33-5.42
		c-0.15-3.5-3.12-6.02-3.19-6.07L47.66,47.54l4.99-5.79C54.81,42.41,60,43.06,65.71,37.12z M70.29,72.61
		c0.02,0.02,2.1,1.81,2.19,3.96c0.04,1.09-0.43,2.11-1.46,3.14c-1.08,1.08-2.16,1.58-3.36,1.53c-2.33-0.1-4.25-2.31-4.28-2.35
		L41.9,54.22l3.85-4.47L70.29,72.61z"/>
	<path d="M60.31,30.81c0.28,0.29,0.64,0.43,1.01,0.43c0.36,0,0.73-0.14,1.01-0.43l17.04-17.72c0.56-0.58,0.56-1.52,0-2.1
		c-0.56-0.58-1.46-0.58-2.01,0L60.31,28.72C59.76,29.3,59.76,30.23,60.31,30.81z"/>
	<path d="M55.67,27c0.28,0.29,0.64,0.43,1.01,0.43s0.73-0.14,1.01-0.43L75.18,8.8c0.56-0.58,0.56-1.52,0-2.1
		c-0.56-0.58-1.46-0.58-2.01,0L55.67,24.9C55.12,25.48,55.12,26.42,55.67,27z"/>
	<path d="M12.5,40.84c6.54,4.58,12.85,2.16,15.29,0.87l5.87,6.44c0.28,0.31,0.66,0.46,1.03,0.46c0.34,0,0.68-0.13,0.96-0.38
		l12.64-11.88c0.4-0.38,0.56-0.97,0.41-1.51c-1.76-6.33,2.26-10.01,2.43-10.16c0.03-0.03,0.06-0.06,0.09-0.09L70.72,4.31
		c0.56-0.58,0.56-1.52,0-2.1c-0.56-0.58-1.46-0.58-2.01,0L49.24,22.46c-0.59,0.54-5.1,4.96-3.5,12.29l-5.84,5.49l-5.3-5.19
		c2.67-6.79,0.01-12.91-0.33-13.64C32.09,15.91,23.5,9.39,15.81,7.46C10.96,6.23,6.93,6.91,4.15,9.41
		c-2.53,2.28-3.74,5.69-3.49,9.86C1.14,27.55,7.17,37.1,12.5,40.84z M6.02,11.65c2.59-2.33,6.39-2,9.12-1.31
		c7.34,1.85,14.9,8.1,16.49,12.24c0.01,0.04,0.03,0.08,0.05,0.11c0.03,0.06,2.79,5.95-0.09,12.07c-0.27,0.58-0.15,1.28,0.3,1.73
		l5.87,5.74l-3,2.82l-5.68-6.23c-0.28-0.3-0.65-0.46-1.03-0.46c-0.27,0-0.54,0.08-0.78,0.24c-0.27,0.18-6.6,4.38-13.19-0.24
		C9.43,35.11,3.93,26.38,3.51,19.09C3.31,15.83,4.16,13.33,6.02,11.65z"/>
</g>
</svg>
