<?xml version="1.0" encoding="utf-8"?>
<!-- Generator: Adobe Illustrator 24.2.3, SVG Export Plug-In . SVG Version: 6.00 Build 0)  -->
<svg version="1.1" id="Capa_1" xmlns="http://www.w3.org/2000/svg" xmlns:xlink="http://www.w3.org/1999/xlink" x="0px" y="0px"
	 viewBox="0 0 85.04 85.04" style="enable-background:new 0 0 85.04 85.04;" xml:space="preserve">
<path d="M80.81,25.84c-0.36-0.64-1.16-0.86-1.79-0.5c-0.63,0.36-0.86,1.17-0.5,1.81c8,14.31-0.06,24.7-4.24,28.74
	c-0.28-0.74-0.7-1.42-1.26-2L55.86,36.35c1.63-1.03,3.58-2.65,5.7-5.24c0.46-0.57,0.39-1.4-0.17-1.87
	c-0.56-0.47-1.39-0.39-1.85,0.17c-4.77,5.81-8.4,6.03-8.4,6.03h-7.36c-0.33,0-0.64,0.12-0.89,0.35l-5.12,4.71
	c-2.56,2.43-4.78,0.54-5.27,0.06c-2.79-3.3-0.34-5.88-0.03-6.19l11.12-11.28c0,0,0,0,0,0c0,0,0,0,0,0l0.01-0.01
	c11.23-11.86,26.41-3.92,27.05-3.58c0.64,0.34,1.44,0.1,1.78-0.55c0.34-0.65,0.1-1.45-0.54-1.8c-0.17-0.09-16.76-8.81-29.28,3.19
	c-2.61-2.19-10.25-7.64-20.58-6.37C9.35,15.52,2.92,28.89,2.68,29.42c-0.08,0.15-7.59,15.21,6.41,28.2c0.07,0.07,0.16,0.1,0.24,0.15
	c0.04,1.51,0.62,2.93,1.68,4c1.09,1.11,2.55,1.71,4.09,1.71c0.24,0,0.48-0.02,0.72-0.05c-0.21,1.72,0.32,3.52,1.63,4.84
	c1.09,1.11,2.55,1.71,4.09,1.71c0.24,0,0.48-0.02,0.72-0.05c-0.21,1.72,0.32,3.52,1.63,4.84c1.13,1.14,2.61,1.71,4.09,1.71
	c0.24,0,0.48-0.04,0.72-0.07c-0.03,0.24-0.07,0.48-0.07,0.73c0,1.56,0.6,3.03,1.7,4.14c1.09,1.11,2.55,1.71,4.09,1.71
	s3-0.61,4.09-1.71l2.38-2.41l3.49,3.4c1.1,1.11,2.54,1.66,3.98,1.66c1.44,0,2.88-0.55,3.98-1.66l0.54-0.54
	c1.21-1.22,1.73-2.86,1.6-4.47c0.19,0.02,0.38,0.06,0.58,0.06c1.5,0,2.91-0.59,3.98-1.67l0.54-0.54c1.06-1.07,1.65-2.5,1.65-4.02
	c0-0.19-0.04-0.38-0.05-0.57c0.18,0.02,0.35,0.05,0.53,0.05c1.5,0,2.91-0.59,3.98-1.67l0.54-0.54c1.06-1.07,1.65-2.5,1.65-4.02
	c0-0.1-0.02-0.19-0.03-0.29c0.22,0.03,0.44,0.06,0.66,0.06c1.44,0,2.88-0.55,3.98-1.66l0.54-0.54c0.76-0.77,1.27-1.73,1.5-2.77
	c0.12-0.05,0.23-0.11,0.34-0.2C78.73,55.63,90.62,43.39,80.81,25.84z M12.87,59.89c-0.6-0.6-0.93-1.4-0.93-2.26
	c0-0.85,0.33-1.65,0.93-2.26l2.87-2.9c0.6-0.6,1.39-0.93,2.23-0.93c0.84,0,1.64,0.33,2.23,0.93c1.23,1.24,1.23,3.27,0,4.51
	l-2.87,2.9C16.15,61.09,14.07,61.09,12.87,59.89z M19.31,66.39c-1.23-1.24-1.23-3.27,0-4.51l2.87-2.9c0.6-0.6,1.39-0.93,2.23-0.93
	c0.84,0,1.64,0.33,2.23,0.93c1.23,1.24,1.23,3.27,0,4.51l-2.87,2.9C22.58,67.6,20.5,67.6,19.31,66.39z M25.75,72.9
	c-1.23-1.24-1.23-3.27,0-4.51l2.87-2.9c0.6-0.6,1.39-0.93,2.23-0.93c0.84,0,1.64,0.33,2.23,0.93c1.23,1.24,1.23,3.27,0,4.51
	l-2.87,2.9C29.03,74.11,26.94,74.11,25.75,72.9z M36.66,79.41c-1.19,1.21-3.27,1.21-4.47,0c-0.6-0.6-0.93-1.4-0.93-2.26
	s0.33-1.65,0.93-2.26l2.87-2.9c0.6-0.6,1.39-0.93,2.23-0.93c0.84,0,1.64,0.33,2.23,0.93c1.23,1.24,1.23,3.27,0,4.51L36.66,79.41z
	 M71.15,60.05l-0.54,0.54c-1.14,1.15-2.96,1.17-4.13,0.08c-0.1-0.11-0.18-0.24-0.28-0.35L52.3,46.68c-0.52-0.51-1.35-0.5-1.86,0.03
	c-0.51,0.53-0.49,1.37,0.03,1.88l13.89,13.64c0.01,0.01,0.01,0.01,0.02,0.02c0.05,0.08,0.08,0.16,0.15,0.23
	c0.03,0.03,0.07,0.06,0.11,0.09c0.38,0.52,0.6,1.14,0.6,1.8c0,0.81-0.31,1.57-0.88,2.14l-0.54,0.54c-1.17,1.18-3.07,1.18-4.23,0
	c-0.04-0.04-0.09-0.06-0.14-0.09L45.66,53.42c-0.52-0.51-1.35-0.5-1.86,0.03c-0.51,0.53-0.49,1.37,0.03,1.88l13.89,13.64
	c0.57,0.57,0.88,1.33,0.88,2.14c0,0.81-0.31,1.57-0.88,2.14l-0.54,0.54c-1.16,1.18-3.06,1.18-4.23,0.01
	c-0.03-0.03-0.05-0.07-0.08-0.1l-9.29-9.23c-0.52-0.51-1.35-0.51-1.86,0.02c-0.51,0.52-0.5,1.37,0.02,1.88l9.29,9.22
	c0.02,0.02,0.03,0.04,0.04,0.05c0.01,0.01,0.01,0.02,0.02,0.03c0,0,0.01,0.01,0.01,0.01c0.51,0.56,0.8,1.28,0.8,2.04
	c0,0.81-0.31,1.57-0.88,2.14l-0.54,0.54c-1.17,1.18-3.07,1.18-4.25-0.02l-3.73-3.63c1.02-2.17,0.66-4.84-1.11-6.64
	c-1.09-1.1-2.55-1.71-4.09-1.71c-0.24,0-0.48,0.02-0.72,0.05c0.21-1.72-0.32-3.52-1.63-4.84c-1.09-1.11-2.55-1.71-4.09-1.71
	c-0.24,0-0.48,0.02-0.72,0.05c0.21-1.72-0.32-3.52-1.63-4.84c-1.09-1.11-2.55-1.71-4.09-1.71c-0.24,0-0.48,0.02-0.72,0.05
	c0.21-1.72-0.32-3.52-1.63-4.84c-1.09-1.1-2.55-1.71-4.09-1.71c-1.55,0-3,0.61-4.09,1.71l-2.87,2.9c-0.4,0.4-0.71,0.87-0.97,1.36
	c-11.35-11.37-5.3-23.68-5.01-24.24c0.06-0.13,6.09-12.63,17.32-14c9-1.11,15.9,3.61,18.38,5.62l-10.1,10.23
	c-1.62,1.55-3.73,5.61-0.04,9.93c0.88,0.92,2.58,1.99,4.57,1.99c1.38,0,2.89-0.51,4.39-1.93l4.73-4.35h6.86c0.19,0,1-0.04,2.23-0.5
	l17.77,18.18c0.57,0.57,0.88,1.33,0.88,2.14S71.72,59.47,71.15,60.05z"/>
</svg>
