<?xml version="1.0" encoding="utf-8"?>
<!-- Generator: Adobe Illustrator 24.2.3, SVG Export Plug-In . SVG Version: 6.00 Build 0)  -->
<svg version="1.1" id="Capa_1" xmlns="http://www.w3.org/2000/svg" xmlns:xlink="http://www.w3.org/1999/xlink" x="0px" y="0px"
	 viewBox="0 0 85.04 85.04" style="enable-background:new 0 0 85.04 85.04;" xml:space="preserve">
<path d="M72.54,49.66c-2.41,0-4.37,1.86-4.37,4.14c0,1.92,1.39,3.52,3.27,3.99v5.68c0,4.26-3.66,7.72-8.16,7.72
	c-4.5,0-8.16-3.46-8.16-7.72v-5.78c1.71-0.56,2.94-2.09,2.94-3.89c0-2.28-1.96-4.14-4.37-4.14c-2.41,0-4.37,1.86-4.37,4.14
	c0,1.81,1.24,3.33,2.94,3.89v5.78c0,5.75,4.94,10.43,11.01,10.43c6.07,0,11.01-4.68,11.01-10.43v-5.89
	c1.54-0.64,2.62-2.09,2.62-3.79C76.91,51.52,74.95,49.66,72.54,49.66z M53.69,55.23c-0.84,0-1.52-0.64-1.52-1.44
	c0-0.79,0.68-1.44,1.52-1.44c0.84,0,1.52,0.64,1.52,1.44C55.2,54.59,54.52,55.23,53.69,55.23z M72.54,55.23
	c-0.84,0-1.52-0.64-1.52-1.44c0-0.79,0.68-1.44,1.52-1.44c0.84,0,1.52,0.64,1.52,1.44C74.05,54.59,73.37,55.23,72.54,55.23z
	 M84.67,79.67l-2.1-17.74c0-0.04,0-0.09,0-0.13l-1.59-12.96c-0.38-2.64-2.8-3.34-4.03-3.34H63.42l-1.99-16.5
	c-0.47-3.49-3.43-4.54-5.35-4.4h-4.08v-6.71c0-9.4-8.08-17.05-18.01-17.05c-9.93,0-18.01,7.65-18.01,17.05v6.71h-3.93
	c-3.72,0-5.38,2.8-5.74,4.28c-0.01,0.05-0.02,0.1-0.03,0.16L0.5,78.92c-0.01,0.05-0.01,0.1-0.01,0.15c0,3.73,2.97,5.12,4.99,5.15
	h40.93h2.02h31.7c2.03,0,3.12-0.76,3.68-1.4C84.99,81.47,84.69,79.77,84.67,79.67z M50.57,34.09c0.84,0,1.52,0.64,1.52,1.44
	c0,0.79-0.68,1.43-1.52,1.43c-0.84,0-1.52-0.64-1.52-1.43C49.05,34.73,49.73,34.09,50.57,34.09z M18.83,17.88
	c0-7.91,6.8-14.34,15.15-14.34c8.35,0,15.15,6.43,15.15,14.34v6.71h-9.17h-3.25H18.83V17.88z M17.4,34.09
	c0.84,0,1.52,0.64,1.52,1.44c0,0.79-0.68,1.43-1.52,1.43c-0.84,0-1.52-0.64-1.52-1.43C15.89,34.73,16.57,34.09,17.4,34.09z
	 M5.52,81.51c-0.5-0.02-2.14-0.25-2.17-2.38L9.1,29.42c0.13-0.41,0.79-2.13,2.95-2.13h3.93v4.34c-1.71,0.56-2.94,2.09-2.94,3.89
	c0,2.28,1.96,4.14,4.37,4.14c2.41,0,4.37-1.86,4.37-4.14c0-1.81-1.24-3.33-2.94-3.89v-4.34h17.88h3.25h9.17v4.34
	c-1.71,0.56-2.94,2.09-2.94,3.89c0,2.28,1.96,4.14,4.37,4.14c2.41,0,4.37-1.86,4.37-4.14c0-1.81-1.24-3.33-2.94-3.89v-4.34h4.14
	c0.03,0,0.08,0,0.12,0c0.61-0.04,2.08,0.08,2.34,2.03l1.96,16.18H49.43c-2.57,0-3.84,1.85-4.16,2.83c-0.03,0.07-0.04,0.15-0.05,0.23
	l-3.99,30.27c-0.15,1.14,0.04,2.02,0.35,2.69L5.52,81.51z M81.6,81.09c-0.31,0.34-0.97,0.41-1.48,0.41H46.42
	c-0.37,0-1.46-0.15-2-0.74c-0.33-0.36-0.45-0.89-0.36-1.61l3.97-30.11c0.13-0.28,0.5-0.85,1.4-0.85h27.5
	c0.4,0.01,1.1,0.16,1.21,0.98l1.35,11.03c0,0.02,0,0.03,0,0.05l2.35,19.8C81.85,80.06,81.94,80.72,81.6,81.09z"/>
</svg>
